<svg width="24" height="24" viewBox="0 0 24 24" fill="none" xmlns="http://www.w3.org/2000/svg">
<g clip-path="url(#clip0_279_24145)">
<path d="M21 10H3M17.4 3V6.6M6.6 3V6.6M10 21H7C5.11438 21 4.17157 21 3.58579 20.4142C3 19.8284 3 18.8856 3 17V8.8C3 6.91438 3 5.97157 3.58579 5.38579C4.17157 4.8 5.11482 4.8 7.0013 4.8C10.5435 4.8 13.4565 4.8 16.9987 4.8C18.8852 4.8 19.8284 4.8 20.4142 5.38579C21 5.97157 21 6.91438 21 8.8V10.5" stroke="white" stroke-width="2" stroke-linecap="round" stroke-linejoin="round"/>
<path d="M8.5 17.5C8.5 18.0523 8.05228 18.5 7.5 18.5C6.94772 18.5 6.5 18.0523 6.5 17.5C6.5 16.9477 6.94772 16.5 7.5 16.5C8.05228 16.5 8.5 16.9477 8.5 17.5Z" fill="white"/>
<path d="M8.5 13.5C8.5 14.0523 8.05228 14.5 7.5 14.5C6.94772 14.5 6.5 14.0523 6.5 13.5C6.5 12.9477 6.94772 12.5 7.5 12.5C8.05228 12.5 8.5 12.9477 8.5 13.5Z" fill="white"/>
<path d="M13 13.5C13 14.0523 12.5523 14.5 12 14.5C11.4477 14.5 11 14.0523 11 13.5C11 12.9477 11.4477 12.5 12 12.5C12.5523 12.5 13 12.9477 13 13.5Z" fill="white"/>
<path d="M22 17.5C22 19.9853 19.9853 22 17.5 22C15.0147 22 13 19.9853 13 17.5C13 15.0147 15.0147 13 17.5 13C19.9853 13 22 15.0147 22 17.5Z" stroke="white" stroke-width="2"/>
<path d="M17.5 16V17.5H19" stroke="white" stroke-width="2" stroke-linecap="round" stroke-linejoin="round"/>
</g>
<defs>
<clipPath id="clip0_279_24145">
<rect width="24" height="24" fill="white"/>
</clipPath>
</defs>
</svg>
